<svg width="234" height="22" viewBox="0 0 234 22" fill="none" xmlns="http://www.w3.org/2000/svg">
<path d="M43.8486 8.32423H40.8424C40.7875 7.9353 40.6754 7.58984 40.5061 7.28784C40.3368 6.98127 40.1194 6.72046 39.8541 6.50541C39.5887 6.29035 39.2821 6.12563 38.9344 6.01124C38.5912 5.89684 38.2183 5.83965 37.8156 5.83965C37.0881 5.83965 36.4544 6.02039 35.9144 6.38186C35.3745 6.73876 34.9558 7.26039 34.6584 7.94674C34.361 8.62851 34.2123 9.4567 34.2123 10.4313C34.2123 11.4334 34.361 12.2753 34.6584 12.9571C34.9604 13.6388 35.3814 14.1536 35.9213 14.5014C36.4612 14.8491 37.0858 15.023 37.795 15.023C38.1931 15.023 38.5614 14.9704 38.9 14.8651C39.2432 14.7599 39.5475 14.6066 39.8129 14.4053C40.0783 14.1994 40.2979 13.95 40.4718 13.6571C40.6502 13.3643 40.7738 13.0303 40.8424 12.6551L43.8486 12.6688C43.7708 13.314 43.5764 13.9363 43.2652 14.5357C42.9586 15.1305 42.5445 15.6636 42.0229 16.1349C41.5059 16.6016 40.8882 16.9722 40.1698 17.2467C39.456 17.5167 38.6484 17.6517 37.747 17.6517C36.4932 17.6517 35.3722 17.368 34.3839 16.8006C33.4001 16.2332 32.6222 15.4119 32.0503 14.3366C31.4829 13.2614 31.1992 11.9596 31.1992 10.4313C31.1992 8.89847 31.4875 7.59441 32.064 6.51913C32.6405 5.44386 33.423 4.62481 34.4113 4.06201C35.3997 3.49463 36.5115 3.21094 37.747 3.21094C38.5614 3.21094 39.3164 3.32533 40.0119 3.55411C40.712 3.78289 41.332 4.11692 41.8719 4.55618C42.4119 4.99087 42.8511 5.52393 43.1897 6.15537C43.5329 6.78681 43.7525 7.50976 43.8486 8.32423Z" fill="white"/>
<path d="M55.4307 3.40311H58.4026V12.5315C58.4026 13.5565 58.1578 14.4533 57.6682 15.222C57.1832 15.9907 56.5037 16.5901 55.6298 17.0203C54.7558 17.4458 53.7377 17.6586 52.5755 17.6586C51.4087 17.6586 50.3884 17.4458 49.5144 17.0203C48.6405 16.5901 47.961 15.9907 47.476 15.222C46.9909 14.4533 46.7484 13.5565 46.7484 12.5315V3.40311H49.7203V12.2776C49.7203 12.8129 49.837 13.2888 50.0703 13.7052C50.3083 14.1216 50.6423 14.4487 51.0724 14.6867C51.5025 14.9246 52.0036 15.0436 52.5755 15.0436C53.152 15.0436 53.6531 14.9246 54.0786 14.6867C54.5087 14.4487 54.8405 14.1216 55.0738 13.7052C55.3118 13.2888 55.4307 12.8129 55.4307 12.2776V3.40311Z" fill="white"/>
<path d="M61.6164 17.4595V3.40311H67.1621C68.2237 3.40311 69.1296 3.593 69.8801 3.97278C70.635 4.34799 71.2093 4.88105 71.6028 5.57197C72.0009 6.25832 72.1999 7.06592 72.1999 7.99478C72.1999 8.92821 71.9986 9.73124 71.5959 10.4039C71.1933 11.0719 70.6099 11.5844 69.8457 11.9413C69.0862 12.2982 68.1665 12.4766 67.0866 12.4766H63.3735V10.0881H66.6062C67.1736 10.0881 67.6448 10.0104 68.0201 9.85478C68.3953 9.69921 68.6744 9.46585 68.8574 9.15471C69.045 8.84356 69.1388 8.45692 69.1388 7.99478C69.1388 7.52806 69.045 7.13456 68.8574 6.81426C68.6744 6.49397 68.393 6.25146 68.0132 6.08673C67.638 5.91744 67.1644 5.83279 66.5924 5.83279H64.5883V17.4595H61.6164ZM69.2074 11.0628L72.7009 17.4595H69.4202L66.0022 11.0628H69.2074Z" fill="white"/>
<path d="M77.4916 17.4595H74.307L79.1595 3.40311H82.9893L87.8349 17.4595H84.6503L81.1293 6.61522H81.0195L77.4916 17.4595ZM77.2926 11.9344H84.815V14.2543H77.2926V11.9344Z" fill="white"/>
<path d="M88.0425 5.85338V3.40311H99.5869V5.85338H95.2835V17.4595H92.3459V5.85338H88.0425Z" fill="white"/>
<path d="M105.229 3.40311V17.4595H102.257V3.40311H105.229Z" fill="white"/>
<path d="M121.36 10.4313C121.36 11.9642 121.069 13.2682 120.488 14.3435C119.911 15.4188 119.124 16.2401 118.127 16.8075C117.134 17.3703 116.017 17.6517 114.777 17.6517C113.528 17.6517 112.407 17.368 111.414 16.8006C110.421 16.2332 109.637 15.4119 109.06 14.3366C108.484 13.2614 108.195 11.9596 108.195 10.4313C108.195 8.89847 108.484 7.59441 109.06 6.51913C109.637 5.44386 110.421 4.62481 111.414 4.06201C112.407 3.49463 113.528 3.21094 114.777 3.21094C116.017 3.21094 117.134 3.49463 118.127 4.06201C119.124 4.62481 119.911 5.44386 120.488 6.51913C121.069 7.59441 121.36 8.89847 121.36 10.4313ZM118.346 10.4313C118.346 9.4384 118.198 8.60105 117.9 7.91928C117.608 7.23751 117.193 6.72046 116.658 6.36814C116.123 6.01581 115.496 5.83965 114.777 5.83965C114.059 5.83965 113.432 6.01581 112.897 6.36814C112.362 6.72046 111.945 7.23751 111.648 7.91928C111.355 8.60105 111.208 9.4384 111.208 10.4313C111.208 11.4242 111.355 12.2616 111.648 12.9433C111.945 13.6251 112.362 14.1422 112.897 14.4945C113.432 14.8468 114.059 15.023 114.777 15.023C115.496 15.023 116.123 14.8468 116.658 14.4945C117.193 14.1422 117.608 13.6251 117.9 12.9433C118.198 12.2616 118.346 11.4242 118.346 10.4313Z" fill="white"/>
<path d="M136.087 3.40311V17.4595H133.52L127.405 8.61249H127.302V17.4595H124.33V3.40311H126.938L133.005 12.2433H133.129V3.40311H136.087Z" fill="white"/>
<path d="M152.178 7.4457C152.123 6.89205 151.888 6.46194 151.471 6.15537C151.055 5.8488 150.49 5.69552 149.776 5.69552C149.291 5.69552 148.882 5.76415 148.548 5.90142C148.213 6.03411 147.957 6.21943 147.779 6.45736C147.605 6.6953 147.518 6.96526 147.518 7.26725C147.509 7.51891 147.561 7.73854 147.676 7.92615C147.795 8.11375 147.957 8.27618 148.163 8.41345C148.369 8.54615 148.607 8.66283 148.877 8.76349C149.147 8.85958 149.435 8.94194 149.742 9.01057L151.005 9.31257C151.618 9.44984 152.181 9.63286 152.693 9.86165C153.206 10.0904 153.649 10.3718 154.025 10.7059C154.4 11.0399 154.69 11.4334 154.896 11.8864C155.107 12.3394 155.214 12.8587 155.219 13.4444C155.214 14.3046 154.995 15.0504 154.56 15.6819C154.13 16.3087 153.508 16.796 152.693 17.1438C151.883 17.487 150.906 17.6586 149.762 17.6586C148.628 17.6586 147.639 17.4847 146.797 17.1369C145.96 16.7892 145.306 16.2744 144.834 15.5926C144.368 14.9063 144.123 14.0575 144.1 13.0463H146.976C147.008 13.5176 147.143 13.9111 147.381 14.2268C147.623 14.538 147.946 14.7736 148.348 14.9338C148.756 15.0893 149.216 15.1671 149.728 15.1671C150.231 15.1671 150.668 15.0939 151.039 14.9475C151.414 14.8011 151.705 14.5974 151.911 14.3366C152.117 14.0758 152.219 13.7761 152.219 13.4375C152.219 13.1218 152.126 12.8564 151.938 12.6414C151.755 12.4263 151.485 12.2433 151.128 12.0923C150.776 11.9413 150.343 11.804 149.831 11.6805L148.3 11.2961C147.115 11.0078 146.18 10.5571 145.493 9.94401C144.807 9.33087 144.466 8.50497 144.471 7.46629C144.466 6.61522 144.693 5.87168 145.15 5.23566C145.612 4.59965 146.246 4.10319 147.051 3.74629C147.857 3.38939 148.772 3.21094 149.797 3.21094C150.84 3.21094 151.75 3.38939 152.528 3.74629C153.311 4.10319 153.919 4.59965 154.354 5.23566C154.789 5.87168 155.013 6.60836 155.027 7.4457H152.178Z" fill="white"/>
<path d="M157.451 5.85338V3.40311H168.996V5.85338H164.692V17.4595H161.755V5.85338H157.451Z" fill="white"/>
<path d="M172.371 17.4595H169.186L174.038 3.40311H177.868L182.714 17.4595H179.529L176.008 6.61522H175.898L172.371 17.4595ZM172.172 11.9344H179.694V14.2543H172.172V11.9344Z" fill="white"/>
<path d="M185.174 17.4595V3.40311H188.146V9.60083H188.332L193.39 3.40311H196.952L191.736 9.69692L197.014 17.4595H193.459L189.608 11.6805L188.146 13.465V17.4595H185.174Z" fill="white"/>
<path d="M202.24 3.40311V17.4595H199.269V3.40311H202.24Z" fill="white"/>
<path d="M217.211 3.40311V17.4595H214.644L208.529 8.61249H208.426V17.4595H205.454V3.40311H208.062L214.13 12.2433H214.253V3.40311H217.211Z" fill="white"/>
<path d="M229.756 7.94674C229.66 7.61271 229.525 7.31758 229.351 7.06135C229.177 6.80054 228.965 6.5809 228.713 6.40245C228.466 6.21943 228.182 6.07987 227.862 5.98378C227.546 5.88769 227.196 5.83965 226.812 5.83965C226.093 5.83965 225.462 6.0181 224.917 6.375C224.377 6.7319 223.957 7.25124 223.655 7.93301C223.353 8.61021 223.202 9.4384 223.202 10.4176C223.202 11.3968 223.35 12.2295 223.648 12.9159C223.945 13.6022 224.366 14.1262 224.911 14.4876C225.455 14.8445 226.098 15.023 226.839 15.023C227.512 15.023 228.086 14.904 228.562 14.6661C229.042 14.4236 229.408 14.0827 229.66 13.6434C229.916 13.2042 230.044 12.6848 230.044 12.0854L230.648 12.1746H227.024V9.93714H232.906V11.7079C232.906 12.9433 232.646 14.0049 232.124 14.8926C231.602 15.7757 230.884 16.4574 229.969 16.9379C229.054 17.4138 228.006 17.6517 226.825 17.6517C225.508 17.6517 224.35 17.3611 223.353 16.78C222.355 16.1943 221.577 15.3639 221.019 14.2886C220.465 13.2087 220.188 11.9276 220.188 10.445C220.188 9.3057 220.353 8.28991 220.683 7.39766C221.017 6.50083 221.483 5.74127 222.083 5.11898C222.682 4.4967 223.38 4.02312 224.176 3.69824C224.972 3.37337 225.835 3.21094 226.764 3.21094C227.56 3.21094 228.301 3.32762 228.987 3.56098C229.674 3.78976 230.282 4.11463 230.813 4.53559C231.348 4.95655 231.785 5.45758 232.124 6.03869C232.463 6.61522 232.68 7.25124 232.776 7.94674H229.756Z" fill="white"/>
<path fill-rule="evenodd" clip-rule="evenodd" d="M19.1182 0.973145H5.51305L0.168945 6.69358L12.312 21.0561L24.4623 6.69358L19.1182 0.973145ZM6.05322 6.69358L9.63997 2.85344H17.6921L21.2789 6.69358L13.6661 15.6973L6.05322 6.69358Z" fill="white"/>
</svg>
