<svg width="278" height="24" viewBox="0 0 278 24" fill="none" xmlns="http://www.w3.org/2000/svg">
<path d="M1.40712 18.7627V5.17158H6.76924C7.80008 5.17158 8.67828 5.36845 9.40385 5.76221C10.1294 6.15154 10.6824 6.6935 11.0629 7.3881C11.4478 8.07827 11.6403 8.87463 11.6403 9.77716C11.6403 10.6797 11.4456 11.4761 11.0563 12.1662C10.667 12.8564 10.1029 13.3939 9.36403 13.7788C8.62961 14.1637 7.74035 14.3562 6.69624 14.3562H3.27855V12.0534H6.2317C6.78473 12.0534 7.24042 11.9583 7.59878 11.768C7.96156 11.5734 8.23144 11.3057 8.4084 10.9651C8.5898 10.62 8.68049 10.224 8.68049 9.77716C8.68049 9.32589 8.5898 8.93214 8.4084 8.5959C8.23144 8.25524 7.96156 7.992 7.59878 7.80618C7.23599 7.61594 6.77588 7.52082 6.21843 7.52082H4.28063V18.7627H1.40712ZM15.0231 18.7627H11.9439L16.6357 5.17158H20.3388L25.024 18.7627H21.9448L18.5404 8.27736H18.4342L15.0231 18.7627ZM14.8307 13.4205H22.104V15.6635H14.8307V13.4205ZM27.4031 18.7627V5.17158H32.7652C33.7917 5.17158 34.6676 5.35518 35.3932 5.72239C36.1232 6.08517 36.6784 6.60059 37.0589 7.26864C37.4438 7.93227 37.6363 8.71314 37.6363 9.61125C37.6363 10.5138 37.4416 11.2902 37.0523 11.9406C36.663 12.5865 36.0989 13.082 35.36 13.4271C34.6256 13.7722 33.7364 13.9447 32.6922 13.9447H29.102V11.6353H32.2277C32.7763 11.6353 33.232 11.5601 33.5948 11.4097C33.9576 11.2593 34.2274 11.0336 34.4044 10.7328C34.5858 10.4319 34.6765 10.0581 34.6765 9.61125C34.6765 9.15999 34.5858 8.77951 34.4044 8.46981C34.2274 8.16012 33.9553 7.92564 33.5881 7.76637C33.2254 7.60267 32.7675 7.52082 32.2144 7.52082H30.2766V18.7627H27.4031ZM34.7429 12.5777L38.1207 18.7627H34.9486L31.6437 12.5777H34.7429ZM39.8926 7.54073V5.17158H51.0549V7.54073H46.8939V18.7627H44.0536V7.54073H39.8926ZM65.0043 5.17158V18.7627H62.5224L56.6094 10.2085H56.5099V18.7627H53.6364V5.17158H56.1582L62.0246 13.7191H62.1441V5.17158H65.0043ZM68.1217 18.7627V5.17158H77.2798V7.54073H70.9952V10.7792H76.8086V13.1484H70.9952V16.3935H77.3064V18.7627H68.1217ZM80.3076 18.7627V5.17158H85.6697C86.6961 5.17158 87.5721 5.35518 88.2977 5.72239C89.0277 6.08517 89.5829 6.60059 89.9634 7.26864C90.3483 7.93227 90.5408 8.71314 90.5408 9.61125C90.5408 10.5138 90.3461 11.2902 89.9568 11.9406C89.5674 12.5865 89.0034 13.082 88.2645 13.4271C87.5301 13.7722 86.6408 13.9447 85.5967 13.9447H82.0065V11.6353H85.1322C85.6808 11.6353 86.1365 11.5601 86.4993 11.4097C86.8621 11.2593 87.1319 11.0336 87.3089 10.7328C87.4903 10.4319 87.581 10.0581 87.581 9.61125C87.581 9.15999 87.4903 8.77951 87.3089 8.46981C87.1319 8.16012 86.8598 7.92564 86.4926 7.76637C86.1298 7.60267 85.6719 7.52082 85.1189 7.52082H83.1811V18.7627H80.3076ZM87.6473 12.5777L91.0252 18.7627H87.8531L84.5482 12.5777H87.6473ZM100.688 9.08035C100.635 8.54502 100.407 8.12915 100.004 7.83273C99.6015 7.53631 99.0551 7.3881 98.365 7.3881C97.896 7.3881 97.5 7.45446 97.1771 7.58719C96.8541 7.71549 96.6063 7.89467 96.4338 8.12472C96.2657 8.35478 96.1816 8.61581 96.1816 8.90781C96.1728 9.15114 96.2236 9.3635 96.3342 9.54489C96.4493 9.72628 96.6063 9.88334 96.8054 10.0161C97.0045 10.1444 97.2346 10.2572 97.4956 10.3545C97.7566 10.4474 98.0353 10.5271 98.3318 10.5934L99.5528 10.8854C100.146 11.0181 100.69 11.1951 101.185 11.4163C101.681 11.6375 102.11 11.9096 102.473 12.2326C102.836 12.5556 103.117 12.936 103.316 13.374C103.519 13.812 103.623 14.3142 103.628 14.8805C103.623 15.7122 103.411 16.4334 102.99 17.0439C102.575 17.65 101.973 18.1212 101.185 18.4574C100.402 18.7892 99.4577 18.9551 98.3517 18.9551C97.2545 18.9551 96.2989 18.787 95.4848 18.4508C94.6752 18.1146 94.0425 17.6168 93.5868 16.9576C93.1356 16.294 92.8989 15.4733 92.8767 14.4956H95.6573C95.6883 14.9513 95.8188 15.3317 96.0489 15.637C96.2834 15.9378 96.5953 16.1657 96.9846 16.3205C97.3784 16.471 97.823 16.5462 98.3185 16.5462C98.8052 16.5462 99.2277 16.4754 99.586 16.3338C99.9488 16.1922 100.23 15.9954 100.429 15.7432C100.628 15.491 100.727 15.2012 100.727 14.8738C100.727 14.5686 100.637 14.312 100.455 14.104C100.278 13.8961 100.017 13.7191 99.6723 13.5731C99.3316 13.4271 98.9136 13.2944 98.418 13.1749L96.9381 12.8033C95.7923 12.5246 94.8875 12.0888 94.2239 11.496C93.5603 10.9031 93.2307 10.1046 93.2351 9.10026C93.2307 8.27736 93.4497 7.55843 93.8921 6.94347C94.3389 6.3285 94.9517 5.84848 95.7303 5.50339C96.509 5.1583 97.3938 4.98576 98.3849 4.98576C99.3936 4.98576 100.274 5.1583 101.026 5.50339C101.783 5.84848 102.371 6.3285 102.791 6.94347C103.212 7.55843 103.428 8.27072 103.442 9.08035H100.688ZM115.487 18.9618C114.549 18.9618 113.739 18.7937 113.058 18.4574C112.376 18.1212 111.852 17.6655 111.485 17.0904C111.122 16.5108 110.941 15.8648 110.941 15.1526C110.941 14.6217 111.047 14.1505 111.259 13.739C111.472 13.3276 111.768 12.9493 112.149 12.6042C112.529 12.2547 112.971 11.9074 113.476 11.5623L116.11 9.83025C116.451 9.61347 116.701 9.38562 116.86 9.14671C117.02 8.90338 117.099 8.64014 117.099 8.357C117.099 8.08712 116.991 7.83715 116.774 7.60709C116.557 7.37704 116.25 7.26422 115.852 7.26864C115.586 7.26864 115.356 7.32837 115.161 7.44782C114.967 7.56285 114.814 7.71549 114.703 7.90573C114.597 8.09154 114.544 8.29948 114.544 8.52954C114.544 8.81269 114.624 9.10026 114.783 9.39226C114.942 9.68425 115.155 9.99395 115.42 10.3213C115.686 10.6443 115.975 10.9938 116.29 11.3699L122.733 18.7627H119.787L114.411 12.7768C114.058 12.3742 113.704 11.9539 113.35 11.5159C113 11.0734 112.708 10.6045 112.474 10.109C112.239 9.60904 112.122 9.06708 112.122 8.48308C112.122 7.82388 112.275 7.23104 112.58 6.70456C112.89 6.17808 113.323 5.76221 113.881 5.45694C114.438 5.14724 115.088 4.9924 115.832 4.9924C116.557 4.9924 117.183 5.14061 117.71 5.43703C118.241 5.72902 118.648 6.11835 118.931 6.60501C119.218 7.08725 119.362 7.61815 119.362 8.19772C119.362 8.83923 119.203 9.42101 118.884 9.94307C118.57 10.4607 118.128 10.9252 117.557 11.3367L114.783 13.3342C114.407 13.6085 114.128 13.8894 113.947 14.177C113.77 14.4602 113.682 14.7323 113.682 14.9933C113.682 15.3162 113.761 15.606 113.92 15.8626C114.08 16.1192 114.305 16.3228 114.597 16.4732C114.889 16.6192 115.232 16.6922 115.626 16.6922C116.104 16.6922 116.575 16.5838 117.039 16.367C117.508 16.1458 117.933 15.8339 118.314 15.4313C118.699 15.0243 119.006 14.542 119.236 13.9846C119.466 13.4271 119.581 12.8099 119.581 12.133H121.924C121.924 12.9648 121.833 13.7147 121.652 14.3827C121.47 15.0464 121.218 15.6259 120.895 16.1215C120.572 16.6125 120.203 17.0151 119.787 17.3293C119.654 17.4133 119.526 17.493 119.402 17.5682C119.278 17.6434 119.15 17.723 119.017 17.8071C118.513 18.2141 117.949 18.5083 117.325 18.6897C116.705 18.8711 116.093 18.9618 115.487 18.9618ZM132.65 5.17158V18.7627H129.776V5.17158H132.65ZM147.125 5.17158V18.7627H144.643L138.73 10.2085H138.631V18.7627H135.757V5.17158H138.279L144.145 13.7191H144.265V5.17158H147.125ZM149.725 7.54073V5.17158H160.887V7.54073H156.726V18.7627H153.886V7.54073H149.725ZM163.469 18.7627V5.17158H172.627V7.54073H166.342V10.7792H172.155V13.1484H166.342V16.3935H172.653V18.7627H163.469ZM184.667 9.5648C184.574 9.24183 184.443 8.95647 184.275 8.70872C184.107 8.45654 183.901 8.24418 183.658 8.07163C183.419 7.89467 183.145 7.75973 182.835 7.66682C182.53 7.57391 182.191 7.52746 181.82 7.52746C181.125 7.52746 180.514 7.7 179.988 8.04509C179.466 8.39018 179.059 8.89232 178.767 9.55153C178.475 10.2063 178.329 11.0071 178.329 11.9539C178.329 12.9006 178.473 13.7058 178.76 14.3695C179.048 15.0331 179.455 15.5397 179.981 15.8892C180.508 16.2343 181.129 16.4068 181.846 16.4068C182.496 16.4068 183.052 16.2918 183.512 16.0617C183.976 15.8272 184.33 15.4976 184.574 15.0729C184.821 14.6482 184.945 14.1461 184.945 13.5665L185.529 13.6528H182.025V11.4893H187.713V13.2015C187.713 14.396 187.46 15.4224 186.956 16.2807C186.452 17.1346 185.757 17.7938 184.872 18.2583C183.987 18.7185 182.974 18.9485 181.833 18.9485C180.559 18.9485 179.439 18.6676 178.475 18.1057C177.51 17.5394 176.758 16.7364 176.219 15.6967C175.683 14.6526 175.416 13.4138 175.416 11.9804C175.416 10.8788 175.575 9.89661 175.893 9.0339C176.216 8.16675 176.668 7.43234 177.247 6.83065C177.827 6.22896 178.501 5.77105 179.271 5.45694C180.041 5.14282 180.875 4.98576 181.773 4.98576C182.543 4.98576 183.26 5.09858 183.923 5.32421C184.587 5.54542 185.175 5.85954 185.689 6.26656C186.206 6.67359 186.629 7.15804 186.956 7.71991C187.283 8.27736 187.494 8.89232 187.587 9.5648H184.667ZM190.614 18.7627V5.17158H195.976C197.003 5.17158 197.879 5.35518 198.604 5.72239C199.334 6.08517 199.89 6.60059 200.27 7.26864C200.655 7.93227 200.847 8.71314 200.847 9.61125C200.847 10.5138 200.653 11.2902 200.263 11.9406C199.874 12.5865 199.31 13.082 198.571 13.4271C197.837 13.7722 196.948 13.9447 195.903 13.9447H192.313V11.6353H195.439C195.988 11.6353 196.443 11.5601 196.806 11.4097C197.169 11.2593 197.439 11.0336 197.616 10.7328C197.797 10.4319 197.888 10.0581 197.888 9.61125C197.888 9.15999 197.797 8.77951 197.616 8.46981C197.439 8.16012 197.167 7.92564 196.799 7.76637C196.437 7.60267 195.979 7.52082 195.426 7.52082H193.488V18.7627H190.614ZM197.954 12.5777L201.332 18.7627H198.16L194.855 12.5777H197.954ZM205.964 18.7627H202.885L207.577 5.17158H211.28L215.965 18.7627H212.886L209.481 8.27736H209.375L205.964 18.7627ZM205.772 13.4205H213.045V15.6635H205.772V13.4205ZM216.166 7.54073V5.17158H227.328V7.54073H223.167V18.7627H220.327V7.54073H216.166ZM232.783 5.17158V18.7627H229.909V5.17158H232.783ZM248.38 11.9671C248.38 13.4492 248.099 14.7101 247.537 15.7498C246.98 16.7895 246.219 17.5836 245.254 18.1322C244.294 18.6764 243.215 18.9485 242.016 18.9485C240.808 18.9485 239.724 18.6742 238.764 18.1256C237.804 17.577 237.045 16.7829 236.488 15.7432C235.93 14.7035 235.652 13.4448 235.652 11.9671C235.652 10.485 235.93 9.22414 236.488 8.18445C237.045 7.14477 237.804 6.35284 238.764 5.80866C239.724 5.26006 240.808 4.98576 242.016 4.98576C243.215 4.98576 244.294 5.26006 245.254 5.80866C246.219 6.35284 246.98 7.14477 247.537 8.18445C248.099 9.22414 248.38 10.485 248.38 11.9671ZM245.467 11.9671C245.467 11.0071 245.323 10.1975 245.035 9.53825C244.752 8.87905 244.352 8.37912 243.834 8.03845C243.316 7.69779 242.71 7.52746 242.016 7.52746C241.321 7.52746 240.715 7.69779 240.197 8.03845C239.68 8.37912 239.277 8.87905 238.99 9.53825C238.706 10.1975 238.565 11.0071 238.565 11.9671C238.565 12.9272 238.706 13.7368 238.99 14.396C239.277 15.0552 239.68 15.5552 240.197 15.8958C240.715 16.2365 241.321 16.4068 242.016 16.4068C242.71 16.4068 243.316 16.2365 243.834 15.8958C244.352 15.5552 244.752 15.0552 245.035 14.396C245.323 13.7368 245.467 12.9272 245.467 11.9671ZM262.62 5.17158V18.7627H260.138L254.225 10.2085H254.125V18.7627H251.252V5.17158H253.774L259.64 13.7191H259.759V5.17158H262.62ZM273.11 9.08035C273.057 8.54502 272.829 8.12915 272.426 7.83273C272.024 7.53631 271.477 7.3881 270.787 7.3881C270.318 7.3881 269.922 7.45446 269.599 7.58719C269.276 7.71549 269.029 7.89467 268.856 8.12472C268.688 8.35478 268.604 8.61581 268.604 8.90781C268.595 9.15114 268.646 9.3635 268.757 9.54489C268.872 9.72628 269.029 9.88334 269.228 10.0161C269.427 10.1444 269.657 10.2572 269.918 10.3545C270.179 10.4474 270.458 10.5271 270.754 10.5934L271.975 10.8854C272.568 11.0181 273.112 11.1951 273.608 11.4163C274.103 11.6375 274.532 11.9096 274.895 12.2326C275.258 12.5556 275.539 12.936 275.738 13.374C275.942 13.812 276.045 14.3142 276.05 14.8805C276.045 15.7122 275.833 16.4334 275.413 17.0439C274.997 17.65 274.395 18.1212 273.608 18.4574C272.825 18.7892 271.88 18.9551 270.774 18.9551C269.677 18.9551 268.721 18.787 267.907 18.4508C267.098 18.1146 266.465 17.6168 266.009 16.9576C265.558 16.294 265.321 15.4733 265.299 14.4956H268.08C268.111 14.9513 268.241 15.3317 268.471 15.637C268.706 15.9378 269.018 16.1657 269.407 16.3205C269.801 16.471 270.245 16.5462 270.741 16.5462C271.228 16.5462 271.65 16.4754 272.008 16.3338C272.371 16.1922 272.652 15.9954 272.851 15.7432C273.05 15.491 273.15 15.2012 273.15 14.8738C273.15 14.5686 273.059 14.312 272.878 14.104C272.701 13.8961 272.44 13.7191 272.095 13.5731C271.754 13.4271 271.336 13.2944 270.84 13.1749L269.361 12.8033C268.215 12.5246 267.31 12.0888 266.646 11.496C265.983 10.9031 265.653 10.1046 265.657 9.10026C265.653 8.27736 265.872 7.55843 266.314 6.94347C266.761 6.3285 267.374 5.84848 268.153 5.50339C268.931 5.1583 269.816 4.98576 270.807 4.98576C271.816 4.98576 272.696 5.1583 273.448 5.50339C274.205 5.84848 274.793 6.3285 275.214 6.94347C275.634 7.55843 275.851 8.27072 275.864 9.08035H273.11Z" fill="black"/>
</svg>
