<svg width="895" height="90" viewBox="0 0 895 90" fill="none" xmlns="http://www.w3.org/2000/svg">
<path d="M138.063 73.4214V11.5732H162.464C167.135 11.5732 171.121 12.4087 174.423 14.0798C177.745 15.7307 180.272 18.0761 182.003 21.1162C183.755 24.1361 184.63 27.6896 184.63 31.7766C184.63 35.8837 183.744 39.417 181.973 42.3765C180.201 45.3159 177.634 47.5708 174.272 49.1412C170.93 50.7115 166.883 51.4967 162.132 51.4967H145.794V40.9873H160.018C162.514 40.9873 164.588 40.6451 166.239 39.9606C167.89 39.2761 169.118 38.2493 169.923 36.8802C170.749 35.5112 171.161 33.81 171.161 31.7766C171.161 29.723 170.749 27.9916 169.923 26.5823C169.118 25.173 167.88 24.1059 166.209 23.3812C164.558 22.6362 162.474 22.2638 159.957 22.2638H151.139V73.4214H138.063ZM171.463 45.2756L186.835 73.4214H172.4L157.36 45.2756H171.463ZM207.914 73.4214H193.901L215.252 11.5732H232.104L253.424 73.4214H239.412L223.92 25.7065H223.436L207.914 73.4214ZM207.038 49.111H240.137V59.3183H207.038V49.111ZM264.251 73.4214V11.5732H288.652C293.323 11.5732 297.309 12.4087 300.611 14.0798C303.933 15.7307 306.459 18.0761 308.191 21.1162C309.942 24.1361 310.818 27.6896 310.818 31.7766C310.818 35.8837 309.932 39.417 308.161 42.3765C306.389 45.3159 303.822 47.5708 300.46 49.1412C297.118 50.7115 293.071 51.4967 288.32 51.4967H271.982V40.9873H286.206C288.702 40.9873 290.776 40.6451 292.427 39.9606C294.078 39.2761 295.306 38.2493 296.111 36.8802C296.936 35.5112 297.349 33.81 297.349 31.7766C297.349 29.723 296.936 27.9916 296.111 26.5823C295.306 25.173 294.067 24.1059 292.396 23.3812C290.746 22.6362 288.662 22.2638 286.145 22.2638H277.327V73.4214H264.251ZM297.651 45.2756L313.023 73.4214H298.587L283.548 45.2756H297.651ZM323.441 73.4214V11.5732H365.116V22.3544H336.518V37.0916H362.972V47.8728H336.518V62.6402H365.237V73.4214H323.441ZM401.96 73.4214V11.5732H426.361C431.052 11.5732 435.048 12.4691 438.35 14.261C441.651 16.0327 444.168 18.4989 445.899 21.6598C447.651 24.8005 448.527 28.4244 448.527 32.5315C448.527 36.6386 447.641 40.2626 445.869 43.4033C444.098 46.544 441.531 48.9902 438.168 50.7417C434.826 52.4933 430.78 53.3691 426.028 53.3691H410.476V42.8899H423.914C426.431 42.8899 428.505 42.457 430.135 41.5913C431.786 40.7055 433.014 39.4874 433.82 37.9372C434.645 36.3669 435.058 34.565 435.058 32.5315C435.058 30.478 434.645 28.6862 433.82 27.1561C433.014 25.6058 431.786 24.4079 430.135 23.5624C428.485 22.6966 426.391 22.2638 423.854 22.2638H415.036V73.4214H401.96ZM460.403 73.4214V11.5732H484.804C489.475 11.5732 493.461 12.4087 496.763 14.0798C500.085 15.7307 502.611 18.0761 504.343 21.1162C506.094 24.1361 506.97 27.6896 506.97 31.7766C506.97 35.8837 506.084 39.417 504.312 42.3765C502.541 45.3159 499.974 47.5708 496.612 49.1412C493.27 50.7115 489.223 51.4967 484.472 51.4967H468.134V40.9873H482.358C484.854 40.9873 486.928 40.6451 488.579 39.9606C490.23 39.2761 491.458 38.2493 492.263 36.8802C493.088 35.5112 493.501 33.81 493.501 31.7766C493.501 29.723 493.088 27.9916 492.263 26.5823C491.458 25.173 490.219 24.1059 488.548 23.3812C486.898 22.6362 484.814 22.2638 482.297 22.2638H473.479V73.4214H460.403ZM493.803 45.2756L509.175 73.4214H494.739L479.7 45.2756H493.803ZM576.428 42.4973C576.428 49.2418 575.15 54.9797 572.593 59.7109C570.056 64.4421 566.593 68.056 562.205 70.5525C557.836 73.0288 552.923 74.267 547.467 74.267C541.971 74.267 537.038 73.0187 532.67 70.5223C528.301 68.0258 524.848 64.4119 522.311 59.6807C519.775 54.9495 518.506 49.2217 518.506 42.4973C518.506 35.7528 519.775 30.0149 522.311 25.2837C524.848 20.5525 528.301 16.9487 532.67 14.4724C537.038 11.9759 541.971 10.7276 547.467 10.7276C552.923 10.7276 557.836 11.9759 562.205 14.4724C566.593 16.9487 570.056 20.5525 572.593 25.2837C575.15 30.0149 576.428 35.7528 576.428 42.4973ZM563.171 42.4973C563.171 38.1285 562.517 34.4442 561.208 31.4444C559.919 28.4446 558.097 26.1696 555.742 24.6193C553.386 23.0691 550.628 22.294 547.467 22.294C544.306 22.294 541.548 23.0691 539.193 24.6193C536.837 26.1696 535.005 28.4446 533.696 31.4444C532.408 34.4442 531.764 38.1285 531.764 42.4973C531.764 46.8661 532.408 50.5505 533.696 53.5503C535.005 56.55 536.837 58.8251 539.193 60.3753C541.548 61.9255 544.306 62.7006 547.467 62.7006C550.628 62.7006 553.386 61.9255 555.742 60.3753C558.097 58.8251 559.919 56.55 561.208 53.5503C562.517 50.5505 563.171 46.8661 563.171 42.4973ZM584.318 22.3544V11.5732H635.113V22.3544H616.178V73.4214H603.253V22.3544H584.318ZM700.872 42.4973C700.872 49.2418 699.594 54.9797 697.037 59.7109C694.5 64.4421 691.037 68.056 686.648 70.5525C682.279 73.0288 677.367 74.267 671.911 74.267C666.415 74.267 661.482 73.0187 657.113 70.5223C652.745 68.0258 649.292 64.4119 646.755 59.6807C644.218 54.9495 642.95 49.2217 642.95 42.4973C642.95 35.7528 644.218 30.0149 646.755 25.2837C649.292 20.5525 652.745 16.9487 657.113 14.4724C661.482 11.9759 666.415 10.7276 671.911 10.7276C677.367 10.7276 682.279 11.9759 686.648 14.4724C691.037 16.9487 694.5 20.5525 697.037 25.2837C699.594 30.0149 700.872 35.7528 700.872 42.4973ZM687.615 42.4973C687.615 38.1285 686.96 34.4442 685.652 31.4444C684.363 28.4446 682.541 26.1696 680.186 24.6193C677.83 23.0691 675.072 22.294 671.911 22.294C668.75 22.294 665.992 23.0691 663.636 24.6193C661.281 26.1696 659.449 28.4446 658.14 31.4444C656.852 34.4442 656.207 38.1285 656.207 42.4973C656.207 46.8661 656.852 50.5505 658.14 53.5503C659.449 56.55 661.281 58.8251 663.636 60.3753C665.992 61.9255 668.75 62.7006 671.911 62.7006C675.072 62.7006 677.83 61.9255 680.186 60.3753C682.541 58.8251 684.363 56.55 685.652 53.5503C686.96 50.5505 687.615 46.8661 687.615 42.4973ZM768.511 33.2261H755.284C755.042 31.5148 754.549 29.9948 753.804 28.666C753.059 27.3171 752.103 26.1696 750.935 25.2233C749.767 24.2771 748.418 23.5523 746.888 23.049C745.378 22.5456 743.737 22.294 741.966 22.294C738.765 22.294 735.976 23.0892 733.601 24.6797C731.225 26.2501 729.383 28.5452 728.074 31.5652C726.765 34.565 726.111 38.209 726.111 42.4973C726.111 46.9064 726.765 50.6109 728.074 53.6106C729.403 56.6104 731.255 58.8754 733.631 60.4055C736.006 61.9356 738.755 62.7006 741.875 62.7006C743.627 62.7006 745.247 62.4691 746.737 62.0061C748.247 61.543 749.586 60.8685 750.754 59.9827C751.921 59.0767 752.888 57.9795 753.653 56.691C754.438 55.4025 754.982 53.9328 755.284 52.2819L768.511 52.3423C768.169 55.181 767.313 57.9191 765.944 60.5565C764.595 63.1738 762.773 65.5192 760.478 67.5929C758.203 69.6465 755.485 71.2772 752.324 72.4852C749.183 73.673 745.63 74.267 741.664 74.267C736.147 74.267 731.215 73.0187 726.866 70.5223C722.538 68.0258 719.115 64.4119 716.598 59.6807C714.102 54.9495 712.854 49.2217 712.854 42.4973C712.854 35.7528 714.122 30.0149 716.659 25.2837C719.196 20.5525 722.638 16.9487 726.987 14.4724C731.336 11.9759 736.228 10.7276 741.664 10.7276C745.247 10.7276 748.569 11.231 751.63 12.2376C754.71 13.2443 757.438 14.714 759.814 16.6467C762.189 18.5593 764.122 20.9048 765.612 23.6831C767.122 26.4615 768.088 29.6425 768.511 33.2261ZM838.105 42.4973C838.105 49.2418 836.827 54.9797 834.27 59.7109C831.733 64.4421 828.27 68.056 823.881 70.5525C819.513 73.0288 814.6 74.267 809.144 74.267C803.648 74.267 798.715 73.0187 794.346 70.5223C789.978 68.0258 786.525 64.4119 783.988 59.6807C781.451 54.9495 780.183 49.2217 780.183 42.4973C780.183 35.7528 781.451 30.0149 783.988 25.2837C786.525 20.5525 789.978 16.9487 794.346 14.4724C798.715 11.9759 803.648 10.7276 809.144 10.7276C814.6 10.7276 819.513 11.9759 823.881 14.4724C828.27 16.9487 831.733 20.5525 834.27 25.2837C836.827 30.0149 838.105 35.7528 838.105 42.4973ZM824.848 42.4973C824.848 38.1285 824.193 34.4442 822.885 31.4444C821.596 28.4446 819.774 26.1696 817.419 24.6193C815.063 23.0691 812.305 22.294 809.144 22.294C805.983 22.294 803.225 23.0691 800.87 24.6193C798.514 26.1696 796.682 28.4446 795.373 31.4444C794.085 34.4442 793.441 38.1285 793.441 42.4973C793.441 46.8661 794.085 50.5505 795.373 53.5503C796.682 56.55 798.514 58.8251 800.87 60.3753C803.225 61.9255 805.983 62.7006 809.144 62.7006C812.305 62.7006 815.063 61.9255 817.419 60.3753C819.774 58.8251 821.596 56.55 822.885 53.5503C824.193 50.5505 824.848 46.8661 824.848 42.4973ZM851.174 73.4214V11.5732H864.25V62.6402H890.765V73.4214H851.174Z" fill="black"/>
<path fill-rule="evenodd" clip-rule="evenodd" d="M83.8181 0.880859H23.9555L0.441406 26.0508L53.8709 89.246L107.332 26.0508L83.8181 0.880859ZM26.3322 26.0508L42.1139 9.15415H77.5435L93.3251 26.0508L59.8287 65.6671L26.3322 26.0508Z" fill="black"/>
</svg>
