<svg width="93" height="82" viewBox="0 0 93 82" fill="none" xmlns="http://www.w3.org/2000/svg">
<path fill-rule="evenodd" clip-rule="evenodd" d="M55.5288 0.00170898H34.7961L26.6523 8.71898L45.157 30.6058L63.6726 8.71898L55.5288 0.00170898ZM35.6193 8.71898L41.0851 2.86706H53.3556L58.8214 8.71898L47.2203 22.4396L35.6193 8.71898Z" fill="black"/>
<path d="M18.6154 55.7288V38.7399H19.7038V55.7288H18.6154ZM21.5022 44.3476C21.4491 43.8122 21.2213 43.3964 20.8187 43.0999C20.4161 42.8035 19.8697 42.6553 19.1795 42.6553C18.7106 42.6553 18.3146 42.7217 17.9916 42.8544C17.6687 42.9827 17.4209 43.1619 17.2484 43.3919C17.0802 43.622 16.9962 43.883 16.9962 44.175C16.9873 44.4183 17.0382 44.6307 17.1488 44.8121C17.2639 44.9935 17.4209 45.1506 17.62 45.2833C17.8191 45.4116 18.0491 45.5244 18.3102 45.6217C18.5712 45.7146 18.8499 45.7943 19.1463 45.8606L20.3674 46.1526C20.9603 46.2854 21.5044 46.4623 21.9999 46.6835C22.4955 46.9047 22.9246 47.1768 23.2874 47.4998C23.6502 47.8228 23.9311 48.2032 24.1302 48.6412C24.3337 49.0792 24.4377 49.5814 24.4421 50.1477C24.4377 50.9794 24.2253 51.7006 23.805 52.3111C23.3891 52.9172 22.7875 53.3884 21.9999 53.7246C21.2169 54.0565 20.2723 54.2224 19.1663 54.2224C18.0691 54.2224 17.1134 54.0542 16.2994 53.718C15.4897 53.3818 14.8571 52.884 14.4014 52.2248C13.9501 51.5612 13.7134 50.7405 13.6913 49.7628H16.4719C16.5029 50.2185 16.6334 50.5989 16.8635 50.9042C17.0979 51.2051 17.4098 51.4329 17.7992 51.5878C18.1929 51.7382 18.6376 51.8134 19.1331 51.8134C19.6197 51.8134 20.0422 51.7426 20.4006 51.601C20.7634 51.4595 21.0443 51.2626 21.2434 51.0104C21.4425 50.7582 21.542 50.4684 21.542 50.141C21.542 49.8358 21.4513 49.5792 21.27 49.3712C21.093 49.1633 20.832 48.9863 20.4869 48.8403C20.1462 48.6943 19.7281 48.5616 19.2326 48.4422L17.7527 48.0705C16.6069 47.7918 15.7021 47.356 15.0385 46.7632C14.3749 46.1703 14.0453 45.3718 14.0497 44.3675C14.0453 43.5446 14.2642 42.8256 14.7067 42.2107C15.1535 41.5957 15.7663 41.1157 16.5449 40.7706C17.3236 40.4255 18.2084 40.253 19.1994 40.253C20.2082 40.253 21.0886 40.4255 21.8407 40.7706C22.5972 41.1157 23.1856 41.5957 23.6059 42.2107C24.0262 42.8256 24.243 43.5379 24.2563 44.3476H21.5022ZM27.1182 54.0299V40.4388H32.4803C33.5067 40.4388 34.3827 40.6224 35.1083 40.9896C35.8383 41.3524 36.3935 41.8678 36.774 42.5359C37.1589 43.1995 37.3513 43.9804 37.3513 44.8785C37.3513 45.781 37.1567 46.5574 36.7674 47.2078C36.378 47.8537 35.8139 48.3492 35.0751 48.6943C34.3407 49.0394 33.4514 49.212 32.4073 49.212H28.8171V46.9025H31.9428C32.4914 46.9025 32.9471 46.8273 33.3098 46.6769C33.6726 46.5265 33.9425 46.3008 34.1195 46C34.3009 45.6992 34.3916 45.3253 34.3916 44.8785C34.3916 44.4272 34.3009 44.0467 34.1195 43.737C33.9425 43.4273 33.6704 43.1928 33.3032 43.0336C32.9404 42.8699 32.4825 42.788 31.9295 42.788H29.9917V54.0299H27.1182ZM34.4579 47.8449L37.8358 54.0299H34.6636L31.3588 47.8449H34.4579ZM42.4679 54.0299H39.3887L44.0805 40.4388H47.7836L52.4688 54.0299H49.3896L45.9852 43.5446H45.879L42.4679 54.0299ZM42.2755 48.6877H49.5488V50.9308H42.2755V48.6877ZM54.8479 54.0299V40.4388H60.21C61.2364 40.4388 62.1124 40.6224 62.838 40.9896C63.568 41.3524 64.1232 41.8678 64.5037 42.5359C64.8886 43.1995 65.0811 43.9804 65.0811 44.8785C65.0811 45.781 64.8864 46.5574 64.4971 47.2078C64.1078 47.8537 63.5437 48.3492 62.8048 48.6943C62.0704 49.0394 61.1811 49.212 60.137 49.212H56.5468V46.9025H59.6725C60.2211 46.9025 60.6768 46.8273 61.0396 46.6769C61.4024 46.5265 61.6722 46.3008 61.8492 46C62.0306 45.6992 62.1213 45.3253 62.1213 44.8785C62.1213 44.4272 62.0306 44.0467 61.8492 43.737C61.6722 43.4273 61.4001 43.1928 61.0329 43.0336C60.6702 42.8699 60.2122 42.788 59.6592 42.788H57.7214V54.0299H54.8479ZM62.1877 47.8449L65.5655 54.0299H62.3934L59.0885 47.8449H62.1877ZM67.855 54.0299V40.4388H77.0131V42.8079H70.7286V46.0465H76.5419V48.4156H70.7286V51.6608H77.0397V54.0299H67.855Z" fill="black"/>
<path d="M1.97419 76.6636V63.0725H4.0248V68.9788H10.8005V63.0725H12.8577V76.6636H10.8005V70.7374H4.0248V76.6636H1.97419ZM28.3927 69.868C28.3927 71.3191 28.1273 72.5668 27.5964 73.6109C27.0655 74.6506 26.3377 75.4513 25.413 76.0132C24.4928 76.5707 23.4465 76.8494 22.2741 76.8494C21.0972 76.8494 20.0465 76.5707 19.1218 76.0132C18.2016 75.4513 17.476 74.6484 16.9451 73.6042C16.4142 72.5601 16.1488 71.3147 16.1488 69.868C16.1488 68.4169 16.4142 67.1715 16.9451 66.1318C17.476 65.0877 18.2016 64.2869 19.1218 63.7294C20.0465 63.1676 21.0972 62.8866 22.2741 62.8866C23.4465 62.8866 24.4928 63.1676 25.413 63.7294C26.3377 64.2869 27.0655 65.0877 27.5964 66.1318C28.1273 67.1715 28.3927 68.4169 28.3927 69.868ZM26.362 69.868C26.362 68.762 26.1829 67.8307 25.8245 67.0741C25.4706 66.3132 24.9839 65.738 24.3645 65.3487C23.7496 64.9549 23.0527 64.7581 22.2741 64.7581C21.491 64.7581 20.792 64.9549 20.177 65.3487C19.5621 65.738 19.0754 66.3132 18.717 67.0741C18.3631 67.8307 18.1861 68.762 18.1861 69.868C18.1861 70.9741 18.3631 71.9076 18.717 72.6685C19.0754 73.4251 19.5621 74.0002 20.177 74.394C20.792 74.7833 21.491 74.978 22.2741 74.978C23.0527 74.978 23.7496 74.7833 24.3645 74.394C24.9839 74.0002 25.4706 73.4251 25.8245 72.6685C26.1829 71.9076 26.362 70.9741 26.362 69.868ZM31.6921 76.6636V63.0725H33.7427V74.8983H39.9012V76.6636H31.6921ZM47.3831 76.6636H42.9833V63.0725H47.5225C48.8542 63.0725 49.9978 63.3445 50.9534 63.8887C51.9091 64.4285 52.6413 65.2049 53.1501 66.2181C53.6633 67.2268 53.9199 68.4368 53.9199 69.8481C53.9199 71.2638 53.661 72.4805 53.1434 73.4981C52.6302 74.5156 51.8869 75.2987 50.9136 75.8473C49.9403 76.3915 48.7635 76.6636 47.3831 76.6636ZM45.0339 74.8718H47.2703C48.3056 74.8718 49.1661 74.6771 49.8518 74.2878C50.5376 73.894 51.0508 73.3255 51.3914 72.5823C51.7321 71.8346 51.9024 70.9232 51.9024 69.8481C51.9024 68.7819 51.7321 67.8771 51.3914 67.1339C51.0552 66.3906 50.5531 65.8265 49.885 65.4416C49.2169 65.0567 48.3874 64.8643 47.3964 64.8643H45.0339V74.8718ZM57.2126 76.6636V63.0725H65.7336V64.8377H59.2632V68.9788H65.289V70.7374H59.2632V74.8983H65.8132V76.6636H57.2126ZM69.2155 76.6636V63.0725H74.06C75.1129 63.0725 75.9867 63.2538 76.6813 63.6166C77.3803 63.9794 77.9024 64.4816 78.2475 65.1231C78.5926 65.7602 78.7651 66.4968 78.7651 67.333C78.7651 68.1647 78.5903 68.8969 78.2408 69.5296C77.8958 70.1578 77.3737 70.6467 76.6747 70.9962C75.9801 71.3457 75.1063 71.5205 74.0533 71.5205H70.3835V69.7552H73.8675C74.5312 69.7552 75.0709 69.6601 75.4868 69.4698C75.9071 69.2796 76.2146 69.0031 76.4092 68.6403C76.6039 68.2775 76.7012 67.8417 76.7012 67.333C76.7012 66.8197 76.6017 66.3751 76.4026 65.9991C76.2079 65.623 75.9004 65.3354 75.4801 65.1363C75.0643 64.9328 74.5179 64.8311 73.841 64.8311H71.2661V76.6636H69.2155ZM75.9248 70.5316L79.2827 76.6636H76.9468L73.6552 70.5316H75.9248ZM89.4158 66.6428C89.345 66.0145 89.053 65.5279 88.5398 65.1828C88.0266 64.8333 87.3807 64.6585 86.602 64.6585C86.0446 64.6585 85.5624 64.747 85.1553 64.924C84.7483 65.0965 84.432 65.3354 84.2063 65.6407C83.9851 65.9415 83.8745 66.2844 83.8745 66.6693C83.8745 66.9923 83.9497 67.271 84.1002 67.5055C84.255 67.74 84.4563 67.9369 84.7041 68.0961C84.9562 68.251 85.2261 68.3815 85.5137 68.4877C85.8013 68.5894 86.0778 68.6735 86.3432 68.7398L87.6705 69.0849C88.1041 69.1911 88.5487 69.3349 89.0044 69.5163C89.4601 69.6977 89.8826 69.9366 90.2719 70.233C90.6612 70.5294 90.9754 70.8966 91.2143 71.3346C91.4576 71.7726 91.5793 72.2969 91.5793 72.9074C91.5793 73.6772 91.3802 74.3608 90.982 74.958C90.5882 75.5553 90.0153 76.0265 89.2632 76.3716C88.5155 76.7167 87.6108 76.8892 86.549 76.8892C85.5314 76.8892 84.651 76.7277 83.9077 76.4048C83.1644 76.0818 82.5827 75.6239 82.1624 75.031C81.7421 74.4338 81.5098 73.7259 81.4656 72.9074H83.5228C83.5626 73.3985 83.7219 73.8078 84.0006 74.1351C84.2838 74.4581 84.6443 74.6992 85.0823 74.8585C85.5248 75.0134 86.0092 75.0908 86.5357 75.0908C87.1153 75.0908 87.6307 75.0001 88.0819 74.8187C88.5376 74.6329 88.896 74.3763 89.157 74.0489C89.418 73.7171 89.5486 73.3299 89.5486 72.8875C89.5486 72.4849 89.4335 72.1553 89.2035 71.8987C88.9778 71.6421 88.6704 71.4298 88.281 71.2616C87.8961 71.0935 87.4603 70.9453 86.9737 70.817L85.3677 70.379C84.2793 70.0826 83.4166 69.6468 82.7795 69.0717C82.1469 68.4965 81.8306 67.7356 81.8306 66.7888C81.8306 66.0057 82.0429 65.3222 82.4676 64.7382C82.8924 64.1542 83.4675 63.7007 84.1931 63.3777C84.9186 63.0503 85.7371 62.8866 86.6485 62.8866C87.5687 62.8866 88.3806 63.0481 89.084 63.3711C89.7919 63.6941 90.3493 64.1387 90.7564 64.705C91.1634 65.2669 91.3758 65.9128 91.3934 66.6428H89.4158Z" fill="black"/>
</svg>
